<?xml version="1.0" encoding="UTF-8" standalone="no"?>
<svg
   xmlns:dc="http://purl.org/dc/elements/1.1/"
   xmlns:cc="http://creativecommons.org/ns#"
   xmlns:rdf="http://www.w3.org/1999/02/22-rdf-syntax-ns#"
   xmlns:svg="http://www.w3.org/2000/svg"
   xmlns="http://www.w3.org/2000/svg"
   xmlns:sodipodi="http://sodipodi.sourceforge.net/DTD/sodipodi-0.dtd"
   xmlns:inkscape="http://www.inkscape.org/namespaces/inkscape"
   width="144.08971mm"
   height="129.16794mm"
   viewBox="0 0 144.08971 129.16794"
   version="1.1"
   id="svg8"
   sodipodi:docname="logo.svg"
   inkscape:version="1.0.2-2 (e86c870879, 2021-01-15)"
   inkscape:export-filename="D:\nuevaTesis2020\DESARROLLO\MATLAB\ModeloNuevo\DiseñoAlgoritmo\logoApp.png"
   inkscape:export-xdpi="97.800003"
   inkscape:export-ydpi="97.800003">
  <defs
     id="defs2">
    <marker
       style="overflow:visible"
       id="SquareL"
       refX="0.0"
       refY="0.0"
       orient="auto"
       inkscape:stockid="SquareL"
       inkscape:isstock="true">
      <path
         transform="scale(0.8)"
         style="fill-rule:evenodd;stroke:#000000;stroke-width:1.0pt"
         d="M -5.0,-5.0 L -5.0,5.0 L 5.0,5.0 L 5.0,-5.0 L -5.0,-5.0 z "
         id="path2993" />
    </marker>
  </defs>
  <sodipodi:namedview
     id="base"
     pagecolor="#ffffff"
     bordercolor="#666666"
     borderopacity="1.0"
     inkscape:pageopacity="0.0"
     inkscape:pageshadow="2"
     inkscape:zoom="1.2179324"
     inkscape:cx="193.96429"
     inkscape:cy="241.96381"
     inkscape:document-units="mm"
     inkscape:current-layer="layer1"
     inkscape:document-rotation="0"
     showgrid="false"
     inkscape:window-width="1920"
     inkscape:window-height="1013"
     inkscape:window-x="-9"
     inkscape:window-y="-9"
     inkscape:window-maximized="1" />
  <metadata
     id="metadata5">
    <rdf:RDF>
      <cc:Work
         rdf:about="">
        <dc:format>image/svg+xml</dc:format>
        <dc:type
           rdf:resource="http://purl.org/dc/dcmitype/StillImage" />
      </cc:Work>
    </rdf:RDF>
  </metadata>
  <g
     inkscape:label="Capa 1"
     inkscape:groupmode="layer"
     id="layer1"
     transform="translate(-38.626389,-52.793785)">
    <circle
       style="opacity:1;fill:#00ff00;fill-opacity:1;stroke:#000100;stroke-width:1;stroke-linecap:round;stroke-linejoin:round;stroke-miterlimit:4;stroke-dasharray:none;stroke-opacity:1"
       id="path14"
       sodipodi:type="arc"
       sodipodi:cx="140.89062"
       sodipodi:cy="73.327377"
       sodipodi:rx="19.749256"
       sodipodi:ry="20.032738"
       sodipodi:start="3.08185"
       sodipodi:end="3.0165224"
       sodipodi:open="true"
       sodipodi:arc-type="arc"
       d="M 121.1766,74.523474 A 19.749256,20.032738 0 0 1 139.38966,53.35258 19.749256,20.032738 0 0 1 160.55562,71.478856 19.749256,20.032738 0 0 1 143.0339,93.241798 19.749256,20.032738 0 0 1 121.29563,75.82635" />
    <path
       style="fill:#0000f3;fill-opacity:1;stroke:#000000;stroke-width:0.264583px;stroke-linecap:butt;stroke-linejoin:miter;stroke-opacity:1"
       d="M 87.692583,159.69298 39.321276,96.191873 v 0"
       id="path839" />
    <path
       style="fill:#0000f3;fill-opacity:1;stroke:#000000;stroke-width:0.264583px;stroke-linecap:butt;stroke-linejoin:miter;stroke-opacity:1"
       d="M 77.865591,72.583679 132.72931,141.75967"
       id="path841"
       sodipodi:nodetypes="cc" />
    <path
       style="fill:none;stroke:#000000;stroke-width:0.264583px;stroke-linecap:butt;stroke-linejoin:miter;stroke-opacity:1"
       d="M 73.605984,70.027916 138.35199,53.159879"
       id="path843" />
    <path
       style="fill:none;stroke:#000000;stroke-width:0.264583px;stroke-linecap:butt;stroke-linejoin:miter;stroke-opacity:1"
       d="M 143.6552,93.178873 102.71924,103.89481"
       id="path845"
       sodipodi:nodetypes="cc" />
    <path
       style="fill:#0000f3;fill-opacity:1;stroke:#000000;stroke-width:0.264583px;stroke-linecap:butt;stroke-linejoin:miter;stroke-opacity:1"
       d="M 39.321276,96.191873 77.865591,72.583679 v 0"
       id="path847" />
    <path
       style="fill:#0000f3;fill-opacity:1;stroke:#000000;stroke-width:0.264583px;stroke-linecap:butt;stroke-linejoin:miter;stroke-opacity:1"
       d="M 87.692581,159.69298 132.72931,141.75967"
       id="path849" />
    <path
       style="opacity:1;fill:#ff5500;fill-opacity:1;stroke:#000000;stroke-width:3.77953;stroke-linecap:round;stroke-linejoin:round;stroke-miterlimit:4;stroke-dasharray:none;stroke-opacity:1"
       d="m 359.70806,355.31454 c -24.36103,-31.90847 -29.14402,-37.11555 -31.01354,-41.46102 -8.42057,-19.57258 -23.69815,-35.91775 -43.14447,-46.15937 -2.70677,-1.42555 -4.54121,-2.73352 -4.07654,-2.90661 1.46838,-0.54696 215.90197,-56.3399 216.54583,-56.34252 0.3379,-0.001 -1.54572,1.32867 -4.18581,2.95566 -15.68548,9.66632 -26.94703,23.86462 -32.81096,41.36728 -5.63035,16.80548 -4.93408,36.84063 1.87091,53.83529 10.49308,26.20521 36.32786,45.01798 64.05144,46.64198 l 7.04951,0.41295 -66.27063,17.32484 c -26.06151,8.45878 -53.93168,11.70463 -79.4936,21.69028 z"
       id="path853"
       transform="scale(0.26458333)"
       sodipodi:nodetypes="sssscsssscccs" />
    <path
       style="opacity:1;fill:#0000ff;fill-opacity:1;stroke:#000000;stroke-width:3.77953;stroke-linecap:round;stroke-linejoin:round;stroke-miterlimit:4;stroke-dasharray:none;stroke-opacity:1"
       d="m 269.84465,521.22521 c -33.51231,-43.98977 -60.87507,-80.04213 -60.80614,-80.11636 0.0689,-0.0742 1.99651,0.4553 4.28351,1.17674 19.61227,6.18676 42.64589,5.52899 62.10417,-1.77353 29.99913,-11.25842 52.83851,-38.02836 59.24571,-69.44168 2.37813,-11.65954 2.27202,-28.08101 -0.25573,-39.57432 -0.73403,-3.33755 -5.12519,-13.06422 -5.03567,-13.15373 0.0895,-0.0895 38.99684,50.85333 81.73826,104.74525 42.74143,53.89192 77.61789,98.07911 77.50325,98.19374 -0.11463,0.11463 -2.68275,-1.76371 -5.70694,-4.1741 -21.0204,-16.75406 -49.81893,-23.56669 -76.75112,-18.15637 -37.43381,7.51995 -66.58504,36.52455 -74.34464,73.97065 -1.6895,8.15318 -2.48772,22.70641 -1.4143,25.78564 0.40812,1.17071 0.65858,2.21202 0.55658,2.31402 -0.102,0.102 -27.60462,-35.80618 -61.11694,-79.79595 z"
       id="path851"
       transform="scale(0.26458333)"
       sodipodi:nodetypes="sssssssssssssss" />
    <circle
       style="opacity:1;fill:#ff0000;fill-opacity:1;stroke:#000000;stroke-width:1;stroke-linecap:round;stroke-linejoin:round;stroke-miterlimit:4;stroke-dasharray:none;stroke-opacity:1;"
       id="path10"
       sodipodi:type="arc"
       sodipodi:cx="63.986805"
       sodipodi:cy="93.09079"
       sodipodi:rx="24.859711"
       sodipodi:ry="24.85951"
       sodipodi:start="3.08185"
       sodipodi:end="3.0165224"
       sodipodi:open="true"
       sodipodi:arc-type="arc"
       d="M 39.171446,94.57508 A 24.859711,24.85951 0 0 1 62.097437,68.30318 24.859711,24.85951 0 0 1 88.740453,90.796878 24.859711,24.85951 0 0 1 66.684685,117.80348 24.859711,24.85951 0 0 1 39.321276,96.191875" />
    <circle
       style="opacity:1;fill:#00ffff;fill-opacity:1;stroke:#000000;stroke-width:1;stroke-linecap:round;stroke-linejoin:round;stroke-miterlimit:4;stroke-dasharray:none;stroke-opacity:1"
       id="path12"
       sodipodi:type="arc"
       sodipodi:cx="112.36764"
       sodipodi:cy="156.5907"
       sodipodi:rx="24.869308"
       sodipodi:ry="24.869129"
       sodipodi:start="3.08185"
       sodipodi:end="3.0165224"
       sodipodi:open="true"
       sodipodi:arc-type="arc"
       d="m 87.542698,158.07556 a 24.869308,24.869129 0 0 1 22.934842,-26.28206 24.869308,24.869129 0 0 1 26.6533,22.5024 24.869308,24.869129 0 0 1 -22.06428,27.01705 24.869308,24.869129 0 0 1 -27.373974,-21.61997" />
    <rect
       style="opacity:1;fill:#ffff00;fill-opacity:1;stroke:#000000;stroke-width:0.80010314;stroke-linecap:round;stroke-linejoin:round;stroke-miterlimit:4;stroke-dasharray:none;stroke-opacity:1"
       id="rect855"
       width="18.758623"
       height="18.7145"
       x="133.72935"
       y="88.418121"
       transform="matrix(0.98307389,-0.18320953,0.16084138,0.98698027,0,0)" />
    <rect
       style="opacity:1;fill:#ffff00;fill-opacity:1;stroke:#000000;stroke-width:1;stroke-linecap:round;stroke-linejoin:round;stroke-miterlimit:4;stroke-dasharray:none;stroke-opacity:1"
       id="rect857"
       width="12.267664"
       height="4.9411426"
       x="140.73096"
       y="90.978142"
       transform="rotate(-8.8388411)" />
    <path
       style="fill:none;stroke:#000000;stroke-width:1;stroke-linecap:round;stroke-linejoin:miter;stroke-miterlimit:4;stroke-dasharray:none;stroke-opacity:1"
       d="M 165.58987,68.365368 182.21609,65.80517"
       id="path859" />
    <circle
       style="opacity:1;fill:#6a0078;fill-opacity:1;stroke:#000000;stroke-width:1.397;stroke-linecap:round;stroke-linejoin:round;stroke-miterlimit:4;stroke-dasharray:8.382, 8.382;stroke-dashoffset:0;stroke-opacity:1"
       id="path2919"
       sodipodi:type="arc"
       sodipodi:cx="63.969154"
       sodipodi:cy="92.834724"
       sodipodi:rx="14.300834"
       sodipodi:ry="14.300368"
       sodipodi:start="3.08185"
       sodipodi:end="3.0165224"
       sodipodi:open="true"
       sodipodi:arc-type="arc"
       d="M 49.693834,93.688558 A 14.300834,14.300368 0 0 1 62.882274,78.575717 14.300834,14.300368 0 0 1 78.208974,91.515158 14.300834,14.300368 0 0 1 65.521141,107.05063 14.300834,14.300368 0 0 1 49.780026,94.618616" />
    <circle
       style="opacity:1;fill:#800080;fill-opacity:1;stroke:#000000;stroke-width:1.397;stroke-linecap:round;stroke-linejoin:round;stroke-miterlimit:4;stroke-dasharray:8.382, 8.38199999999999967;stroke-dashoffset:0;stroke-opacity:1"
       id="circle2921"
       sodipodi:type="arc"
       sodipodi:cx="112.40205"
       sodipodi:cy="156.92999"
       sodipodi:rx="14.300834"
       sodipodi:ry="14.300368"
       sodipodi:start="3.08185"
       sodipodi:end="3.0165224"
       sodipodi:open="true"
       sodipodi:arc-type="arc"
       d="m 98.126726,157.78383 a 14.300834,14.300368 0 0 1 13.188444,-15.11285 14.300834,14.300368 0 0 1 15.3267,12.93945 14.300834,14.300368 0 0 1 -12.68784,15.53547 14.300834,14.300368 0 0 1 -15.741112,-12.43202" />
  </g>
</svg>
